# Blender 3.6.0
# www.blender.org
o Cylinder
v -0.000000 0.125000 0.000000
v -0.000000 0.125000 1.000000
v 0.088388 0.088388 0.000000
v 0.088388 0.088388 1.000000
v 0.125000 0.000000 0.000000
v 0.125000 -0.000000 1.000000
v 0.088388 -0.088388 -0.000000
v 0.088388 -0.088388 1.000000
v -0.000000 -0.125000 -0.000000
v -0.000000 -0.125000 1.000000
v -0.088388 -0.088388 -0.000000
v -0.088388 -0.088388 1.000000
v -0.125000 0.000000 0.000000
v -0.125000 -0.000000 1.000000
v -0.088388 0.088388 0.000000
v -0.088388 0.088388 1.000000
v -0.000000 0.125000 0.100000
v -0.000000 0.125000 0.200000
v -0.000000 0.125000 0.300000
v -0.000000 0.125000 0.400000
v -0.000000 0.125000 0.500000
v -0.000000 0.125000 0.600000
v -0.000000 0.125000 0.700000
v -0.000000 0.125000 0.800000
v -0.000000 0.125000 0.900000
v 0.088388 0.088388 0.900000
v 0.088388 0.088388 0.800000
v 0.088388 0.088388 0.700000
v 0.088388 0.088388 0.600000
v 0.088388 0.088388 0.500000
v 0.088388 0.088388 0.400000
v 0.088388 0.088388 0.300000
v 0.088388 0.088388 0.200000
v 0.088388 0.088388 0.100000
v 0.125000 -0.000000 0.900000
v 0.125000 -0.000000 0.800000
v 0.125000 -0.000000 0.700000
v 0.125000 -0.000000 0.600000
v 0.125000 -0.000000 0.500000
v 0.125000 -0.000000 0.400000
v 0.125000 -0.000000 0.300000
v 0.125000 -0.000000 0.200000
v 0.125000 -0.000000 0.100000
v 0.088388 -0.088388 0.900000
v 0.088388 -0.088388 0.800000
v 0.088388 -0.088388 0.700000
v 0.088388 -0.088388 0.600000
v 0.088388 -0.088388 0.500000
v 0.088388 -0.088388 0.400000
v 0.088388 -0.088388 0.300000
v 0.088388 -0.088388 0.200000
v 0.088388 -0.088388 0.100000
v -0.000000 -0.125000 0.900000
v -0.000000 -0.125000 0.800000
v -0.000000 -0.125000 0.700000
v -0.000000 -0.125000 0.600000
v -0.000000 -0.125000 0.500000
v -0.000000 -0.125000 0.400000
v -0.000000 -0.125000 0.300000
v -0.000000 -0.125000 0.200000
v -0.000000 -0.125000 0.100000
v -0.088388 -0.088388 0.900000
v -0.088388 -0.088388 0.800000
v -0.088388 -0.088388 0.700000
v -0.088388 -0.088388 0.600000
v -0.088388 -0.088388 0.500000
v -0.088388 -0.088388 0.400000
v -0.088388 -0.088388 0.300000
v -0.088388 -0.088388 0.200000
v -0.088388 -0.088388 0.100000
v -0.125000 -0.000000 0.900000
v -0.125000 -0.000000 0.800000
v -0.125000 -0.000000 0.700000
v -0.125000 -0.000000 0.600000
v -0.125000 -0.000000 0.500000
v -0.125000 -0.000000 0.400000
v -0.125000 -0.000000 0.300000
v -0.125000 -0.000000 0.200000
v -0.125000 -0.000000 0.100000
v -0.088388 0.088388 0.900000
v -0.088388 0.088388 0.800000
v -0.088388 0.088388 0.700000
v -0.088388 0.088388 0.600000
v -0.088388 0.088388 0.500000
v -0.088388 0.088388 0.400000
v -0.088388 0.088388 0.300000
v -0.088388 0.088388 0.200000
v -0.088388 0.088388 0.100000
vn -0.0000 1.0000 -0.0000
vn 0.7071 0.7071 -0.0000
vn 1.0000 -0.0000 -0.0000
vn 0.7071 -0.7071 -0.0000
vn -0.0000 -1.0000 -0.0000
vn -0.7071 -0.7071 -0.0000
vn -1.0000 -0.0000 -0.0000
vn -0.7071 0.7071 -0.0000
vt 1.000000 0.950000
vt 1.000000 1.000000
vt 0.875000 1.000000
vt 0.875000 0.950000
vt 0.750000 1.000000
vt 0.750000 0.950000
vt 0.625000 1.000000
vt 0.625000 0.950000
vt 0.500000 1.000000
vt 0.500000 0.950000
vt 0.375000 1.000000
vt 0.375000 0.950000
vt 0.250000 1.000000
vt 0.250000 0.950000
vt 0.125000 1.000000
vt 0.125000 0.950000
vt 0.000000 1.000000
vt 0.000000 0.950000
vt 0.125000 0.500000
vt 0.125000 0.550000
vt 0.000000 0.550000
vt 0.000000 0.500000
vt 0.125000 0.600000
vt 0.000000 0.600000
vt 0.125000 0.650000
vt 0.000000 0.650000
vt 0.125000 0.700000
vt 0.000000 0.700000
vt 0.125000 0.750000
vt 0.000000 0.750000
vt 0.125000 0.800000
vt 0.000000 0.800000
vt 0.125000 0.850000
vt 0.000000 0.850000
vt 0.125000 0.900000
vt 0.000000 0.900000
vt 0.250000 0.500000
vt 0.250000 0.550000
vt 0.250000 0.600000
vt 0.250000 0.650000
vt 0.250000 0.700000
vt 0.250000 0.750000
vt 0.250000 0.800000
vt 0.250000 0.850000
vt 0.250000 0.900000
vt 0.375000 0.500000
vt 0.375000 0.550000
vt 0.375000 0.600000
vt 0.375000 0.650000
vt 0.375000 0.700000
vt 0.375000 0.750000
vt 0.375000 0.800000
vt 0.375000 0.850000
vt 0.375000 0.900000
vt 0.500000 0.500000
vt 0.500000 0.550000
vt 0.500000 0.600000
vt 0.500000 0.650000
vt 0.500000 0.700000
vt 0.500000 0.750000
vt 0.500000 0.800000
vt 0.500000 0.850000
vt 0.500000 0.900000
vt 0.625000 0.500000
vt 0.625000 0.550000
vt 0.625000 0.600000
vt 0.625000 0.650000
vt 0.625000 0.700000
vt 0.625000 0.750000
vt 0.625000 0.800000
vt 0.625000 0.850000
vt 0.625000 0.900000
vt 0.750000 0.500000
vt 0.750000 0.550000
vt 0.750000 0.600000
vt 0.750000 0.650000
vt 0.750000 0.700000
vt 0.750000 0.750000
vt 0.750000 0.800000
vt 0.750000 0.850000
vt 0.750000 0.900000
vt 0.875000 0.500000
vt 0.875000 0.550000
vt 0.875000 0.600000
vt 0.875000 0.650000
vt 0.875000 0.700000
vt 0.875000 0.750000
vt 0.875000 0.800000
vt 0.875000 0.850000
vt 0.875000 0.900000
vt 1.000000 0.500000
vt 1.000000 0.550000
vt 1.000000 0.600000
vt 1.000000 0.650000
vt 1.000000 0.700000
vt 1.000000 0.750000
vt 1.000000 0.800000
vt 1.000000 0.850000
vt 1.000000 0.900000
s 1
f 25/1/1 2/2/1 4/3/2 26/4/2
f 26/4/2 4/3/2 6/5/3 35/6/3
f 35/6/3 6/5/3 8/7/4 44/8/4
f 44/8/4 8/7/4 10/9/5 53/10/5
f 53/10/5 10/9/5 12/11/6 62/12/6
f 62/12/6 12/11/6 14/13/7 71/14/7
f 71/14/7 14/13/7 16/15/8 80/16/8
f 80/16/8 16/15/8 2/17/1 25/18/1
f 15/19/8 88/20/8 17/21/1 1/22/1
f 88/20/8 87/23/8 18/24/1 17/21/1
f 87/23/8 86/25/8 19/26/1 18/24/1
f 86/25/8 85/27/8 20/28/1 19/26/1
f 85/27/8 84/29/8 21/30/1 20/28/1
f 84/29/8 83/31/8 22/32/1 21/30/1
f 83/31/8 82/33/8 23/34/1 22/32/1
f 82/33/8 81/35/8 24/36/1 23/34/1
f 81/35/8 80/16/8 25/18/1 24/36/1
f 13/37/7 79/38/7 88/20/8 15/19/8
f 79/38/7 78/39/7 87/23/8 88/20/8
f 78/39/7 77/40/7 86/25/8 87/23/8
f 77/40/7 76/41/7 85/27/8 86/25/8
f 76/41/7 75/42/7 84/29/8 85/27/8
f 75/42/7 74/43/7 83/31/8 84/29/8
f 74/43/7 73/44/7 82/33/8 83/31/8
f 73/44/7 72/45/7 81/35/8 82/33/8
f 72/45/7 71/14/7 80/16/8 81/35/8
f 11/46/6 70/47/6 79/38/7 13/37/7
f 70/47/6 69/48/6 78/39/7 79/38/7
f 69/48/6 68/49/6 77/40/7 78/39/7
f 68/49/6 67/50/6 76/41/7 77/40/7
f 67/50/6 66/51/6 75/42/7 76/41/7
f 66/51/6 65/52/6 74/43/7 75/42/7
f 65/52/6 64/53/6 73/44/7 74/43/7
f 64/53/6 63/54/6 72/45/7 73/44/7
f 63/54/6 62/12/6 71/14/7 72/45/7
f 9/55/5 61/56/5 70/47/6 11/46/6
f 61/56/5 60/57/5 69/48/6 70/47/6
f 60/57/5 59/58/5 68/49/6 69/48/6
f 59/58/5 58/59/5 67/50/6 68/49/6
f 58/59/5 57/60/5 66/51/6 67/50/6
f 57/60/5 56/61/5 65/52/6 66/51/6
f 56/61/5 55/62/5 64/53/6 65/52/6
f 55/62/5 54/63/5 63/54/6 64/53/6
f 54/63/5 53/10/5 62/12/6 63/54/6
f 7/64/4 52/65/4 61/56/5 9/55/5
f 52/65/4 51/66/4 60/57/5 61/56/5
f 51/66/4 50/67/4 59/58/5 60/57/5
f 50/67/4 49/68/4 58/59/5 59/58/5
f 49/68/4 48/69/4 57/60/5 58/59/5
f 48/69/4 47/70/4 56/61/5 57/60/5
f 47/70/4 46/71/4 55/62/5 56/61/5
f 46/71/4 45/72/4 54/63/5 55/62/5
f 45/72/4 44/8/4 53/10/5 54/63/5
f 5/73/3 43/74/3 52/65/4 7/64/4
f 43/74/3 42/75/3 51/66/4 52/65/4
f 42/75/3 41/76/3 50/67/4 51/66/4
f 41/76/3 40/77/3 49/68/4 50/67/4
f 40/77/3 39/78/3 48/69/4 49/68/4
f 39/78/3 38/79/3 47/70/4 48/69/4
f 38/79/3 37/80/3 46/71/4 47/70/4
f 37/80/3 36/81/3 45/72/4 46/71/4
f 36/81/3 35/6/3 44/8/4 45/72/4
f 3/82/2 34/83/2 43/74/3 5/73/3
f 34/83/2 33/84/2 42/75/3 43/74/3
f 33/84/2 32/85/2 41/76/3 42/75/3
f 32/85/2 31/86/2 40/77/3 41/76/3
f 31/86/2 30/87/2 39/78/3 40/77/3
f 30/87/2 29/88/2 38/79/3 39/78/3
f 29/88/2 28/89/2 37/80/3 38/79/3
f 28/89/2 27/90/2 36/81/3 37/80/3
f 27/90/2 26/4/2 35/6/3 36/81/3
f 1/91/1 17/92/1 34/83/2 3/82/2
f 17/92/1 18/93/1 33/84/2 34/83/2
f 18/93/1 19/94/1 32/85/2 33/84/2
f 19/94/1 20/95/1 31/86/2 32/85/2
f 20/95/1 21/96/1 30/87/2 31/86/2
f 21/96/1 22/97/1 29/88/2 30/87/2
f 22/97/1 23/98/1 28/89/2 29/88/2
f 23/98/1 24/99/1 27/90/2 28/89/2
f 24/99/1 25/1/1 26/4/2 27/90/2
